<?xml version="1.0" encoding="utf-8"?>
<!-- Generator: Adobe Illustrator 21.0.2, SVG Export Plug-In . SVG Version: 6.00 Build 0)  -->
<svg version="1.1" id="Layer_1" xmlns="http://www.w3.org/2000/svg" xmlns:xlink="http://www.w3.org/1999/xlink" x="0px" y="0px"
	 viewBox="0 0 512 512" style="enable-background:new 0 0 512 512;" xml:space="preserve">
<style type="text/css">
	.st0{fill:#FF8D35;}
	.st1{fill:#FFFFFF;}
	.st2{fill:#CC6E2E;}
</style>
<path class="st0" d="M511.6,256c0,141.3-114.5,255.8-255.8,255.8C114.5,511.8,0,397.3,0,256C0,114.7,114.5,0.2,255.8,0.2
	C397.1,0.2,511.6,114.7,511.6,256z"/>
<g>
	<path class="st1" d="M464.5,235.7c-52.1,4-68.8-26.6-62-35.9c11.9-16.2,68.4,23.1,72.1-6c0.6-4.9,12.4-17.3,23.2-20.5
		c-24.2-70.7-78.4-127.5-147.5-155c-2.4,8.1-4.5,14.8-5.7,15.4C305.1,53,258.1,61.9,230,99c-3.9,5.2-9.2,15.1-3.5,21.3
		c7,7.7,25.7-0.2,34.9,0.4c25.5,1.8,97.5,18.6,99.8,30.3c2.3,11.6-27.3,33.7-56.3,17.7c-8.5-4.7-42.6-10.6-54.2-12.6
		c-8.1-1.5-77.9,7.3-74.8,90.3c1.3,33.7,22.3,55.3,56.3,55.7c28.2,0.3,56.7-3,65.9,30.4c7.8,28.3,4.8,57.5,11.8,85.7
		c2.8,11.3,8.8,27.2,23.1,28.4c21.7,1.9,36.3-12.7,49.4-27.9c10.4-12.1,23.6-22.6,31.3-36.8c12.3-22.5,8.9-49.3,21.9-71.8
		C446.1,292,481,234.5,464.5,235.7z"/>
	<path class="st1" d="M82.1,305.8c-8-11.6-17.2-22.9-25.4-34.4C49,260.7,19,212.1,5.2,204.6C1.8,221.2,0,238.4,0,256
		c0,62.2,22.2,119.3,59.2,163.7c1,1.1,23.2-15.4,25.1-17c8.2-7,15.1-15.5,18.2-25.9C109.7,352.3,95.6,325.4,82.1,305.8z"/>
</g>
<path class="st2" d="M501.4,338.6c-0.3,0-0.6,0-0.9,0c-43.1-3.7-93.8-18.4-150.7-43.6c-45.1-20-94.3-46.6-146.2-79.1
	C115.3,160.7,48.7,106.6,48,106.1c-4.6-3.7-5.2-10.4-1.5-15c3.7-4.6,10.4-5.2,15-1.5c0.7,0.5,66.4,53.9,153.5,108.4
	c51,31.9,99.3,58,143.5,77.6c54.7,24.2,103.1,38.2,143.8,41.8c5.9,0.5,10.2,5.7,9.7,11.5C511.5,334.4,506.8,338.6,501.4,338.6z"/>
<path class="st1" d="M167,160.1c0,15.7-12.7,28.4-28.4,28.4c-15.7,0-28.4-12.7-28.4-28.4c0-15.7,12.7-28.4,28.4-28.4
	C154.3,131.6,167,144.4,167,160.1z"/>
<path class="st2" d="M107.6,475.2c-3,0-6-1.3-8.1-3.8c-3.8-4.5-3.3-11.2,1.2-15c52.6-44.7,101.6-93.6,145.5-145.4
	c35.1-41.4,67.1-84.7,95.1-128.7c47.7-75,67.5-126.6,67.6-127.2c2.1-5.5,8.2-8.3,13.7-6.2c5.5,2.1,8.3,8.2,6.2,13.7
	c-0.8,2.2-20.5,53.8-69.2,130.4c-28.5,44.9-61.2,89.1-97,131.3c-44.7,52.8-94.6,102.6-148.2,148.2
	C112.5,474.3,110,475.2,107.6,475.2z"/>
<g>
	<path class="st1" d="M330.4,256c0,17.7-14.3,32-32,32c-17.7,0-32-14.3-32-32s14.3-32,32-32C316.1,224,330.4,238.3,330.4,256z"/>
	<circle class="st1" cx="191.9" cy="383.9" r="32"/>
</g>
</svg>
