<?xml version="1.0" encoding="UTF-8"?>
<svg width="533px" height="486px" viewBox="0 0 533 486" version="1.1" xmlns="http://www.w3.org/2000/svg" xmlns:xlink="http://www.w3.org/1999/xlink">
    <!-- Generator: Sketch 42 (36781) - http://www.bohemiancoding.com/sketch -->
    <title>Storytelling</title>
    <desc>Created with Sketch.</desc>
    <defs></defs>
    <g id="Page-1" stroke="none" stroke-width="1" fill="none" fill-rule="evenodd">
        <g id="Storytelling" transform="translate(-758.000000, 3.000000)">
            <path d="M1006.04836,380.540198 C869.13035,373.693033 761,291.225767 761,190.5 C761,85.2897552 878.972968,0 1024.5,0 C1170.02703,0 1288,85.2897552 1288,190.5 C1288,276.195789 1209.73179,348.67549 1102.05651,372.614447 C1055.95089,419.18545 994.618175,477 974.279118,477 C970.70657,477 1002.54486,428.477212 1006.04836,380.540198 Z" id="Combined-Shape" fill="#FF8D35"></path>
            <g id="Chart" stroke-width="1" transform="translate(0.000000, 65.000000)">
                <path d="M1090.42491,208.589751 C1093.28569,212.114202 1095,216.606901 1095,221.5 C1095,232.821837 1085.82184,242 1074.5,242 C1063.17816,242 1054,232.821837 1054,221.5 C1054,217.269497 1055.28146,213.338296 1057.47739,210.07339 L988.236917,40.8188881 C987.341595,40.9383381 986.427999,41 985.5,41 C985.039295,41 984.58214,40.9848027 984.129009,40.954882 L929.523299,145.551735 C932.921787,149.210472 935,154.11254 935,159.5 C935,170.821837 925.821837,180 914.5,180 C903.178163,180 894,170.821837 894,159.5 C894,157.357463 894.328684,155.291694 894.93838,153.350365 L851.586402,120.351099 C848.608386,122.037389 845.166608,123 841.5,123 C830.178163,123 821,113.821837 821,102.5 C821,91.1781626 830.178163,82 841.5,82 C852.821837,82 862,91.1781626 862,102.5 C862,104.2857 861.771683,106.018074 861.342648,107.669521 L905.336227,141.157171 C908.09392,139.776791 911.206245,139 914.5,139 C914.631165,139 914.762043,139.001232 914.892622,139.003685 L969.847228,33.7385228 C966.823373,30.1668143 965,25.5463429 965,20.5 C965,9.17816263 974.178163,0 985.5,0 C996.821837,0 1006,9.17816263 1006,20.5 C1006,24.9819317 1004.56169,29.1279283 1002.12146,32.5015969 L1071.16317,201.27021 C1072.24912,201.09244 1073.36376,201 1074.5,201 C1075.09985,201 1075.69368,201.025763 1076.28044,201.076244 L1129.98334,87.9746866 C1126.28589,84.2665876 1124,79.1502435 1124,73.5 C1124,62.1781626 1133.17816,53 1144.5,53 C1155.82184,53 1165,62.1781626 1165,73.5 C1165,76.1339749 1164.50324,78.6519256 1163.5983,80.9652761 L1202.59614,123.862896 C1204.46571,123.3016 1206.44764,123 1208.5,123 C1219.82184,123 1229,132.178163 1229,143.5 C1229,154.821837 1219.82184,164 1208.5,164 C1197.17816,164 1188,154.821837 1188,143.5 C1188,140.111317 1188.82221,136.914672 1190.27802,134.098679 L1152.39314,92.4253113 C1150.06105,93.3990803 1147.51063,93.9543587 1144.83571,93.9973067 L1090.42491,208.589751 Z" id="Combined-Shape" stroke="#FFFFFF" stroke-width="16" stroke-linecap="square"></path>
                <circle id="Oval-9" fill="#FFFFFF" cx="842" cy="103" r="15"></circle>
                <ellipse id="Oval-8" fill="#FFFFFF" cx="915" cy="159" rx="15" ry="16"></ellipse>
                <ellipse id="Oval-7" fill="#FFFFFF" cx="985" cy="21.5" rx="16" ry="16.5"></ellipse>
                <ellipse id="Oval-6" fill="#FFFFFF" cx="1075" cy="221.5" rx="15" ry="16.5"></ellipse>
                <ellipse id="Oval-5" fill="#FFFFFF" cx="1208.5" cy="143.5" rx="16.5" ry="18.5"></ellipse>
                <circle id="Oval-3" fill="#FF8D35" cx="6" cy="501" r="6"></circle>
                <circle id="Oval-3" fill="#FF8D35" cx="274" cy="501" r="6"></circle>
                <ellipse id="Oval-4" fill="#FFFFFF" cx="1146.5" cy="75.5" rx="16.5" ry="19.5"></ellipse>
            </g>
        </g>
    </g>
</svg>